<?xml version="1.0" encoding="UTF-8" standalone="no"?>
<!DOCTYPE svg PUBLIC "-//W3C//DTD SVG 1.1//EN" "http://www.w3.org/Graphics/SVG/1.1/DTD/svg11.dtd">
<svg xmlns="http://www.w3.org/2000/svg" version="1.1" viewBox="0 0 900 618">
<g stroke-width="2.00" fill="none" stroke-linecap="butt">
<path stroke="#77cbeb" vector-effect="non-scaling-stroke" d="
  M 322.00 259.11
  A 0.86 0.86 0.0 0 0 321.14 258.25
  L 319.86 258.25
  A 0.86 0.86 0.0 0 0 319.00 259.11
  L 319.00 348.65
  A 0.86 0.86 0.0 0 0 319.86 349.51
  L 321.14 349.51
  A 0.86 0.86 0.0 0 0 322.00 348.65
  L 322.00 259.11"
/>
<path stroke="#efbe85" vector-effect="non-scaling-stroke" d="
  M 347.31 262.78
  L 347.00 274.15
  A 0.99 0.97 -75.9 0 0 347.53 275.06
  C 349.72 276.21 349.85 273.91 349.77 272.45
  Q 349.50 267.49 349.73 262.45
  A 1.00 1.00 0.0 0 1 350.73 261.50
  L 353.72 261.50
  A 0.80 0.79 -75.0 0 0 354.41 261.10
  C 354.93 260.19 353.81 259.79 353.08 259.78
  C 349.80 259.72 340.25 258.98 342.25 261.39
  A 1.00 1.00 0.0 0 0 343.02 261.75
  L 346.31 261.75
  A 1.00 1.00 0.0 0 1 347.31 262.78"
/>
<path stroke="#efbe85" vector-effect="non-scaling-stroke" d="
  M 372.88 268.25
  L 379.50 268.25
  A 1.00 1.00 0.0 0 1 380.50 269.25
  L 380.50 274.31
  A 0.99 0.99 0.0 0 0 381.06 275.20
  Q 381.91 275.62 382.44 274.97
  C 383.23 274.01 382.50 262.79 382.46 260.79
  A 1.01 1.00 -74.0 0 0 382.01 259.97
  C 379.77 258.51 380.52 264.64 380.43 265.67
  A 1.01 1.00 1.6 0 1 379.46 266.58
  L 373.03 266.80
  A 1.00 1.00 0.0 0 1 372.00 265.80
  L 372.00 260.89
  A 1.00 0.99 6.9 0 0 371.22 259.91
  L 370.97 259.86
  A 1.00 1.00 0.0 0 0 369.75 260.83
  L 369.75 274.33
  A 1.00 1.00 0.0 0 0 370.75 275.33
  L 371.10 275.33
  A 0.80 0.80 0.0 0 0 371.90 274.53
  L 371.89 269.25
  A 0.99 0.99 0.0 0 1 372.88 268.25"
/>
<path stroke="#efbe85" vector-effect="non-scaling-stroke" d="
  M 401.74 265.58
  L 401.51 262.86
  A 1.01 1.00 87.1 0 1 402.49 261.77
  Q 405.21 261.72 407.94 261.76
  C 408.76 261.77 409.50 261.50 409.31 260.55
  A 1.01 1.00 83.9 0 0 408.33 259.75
  L 400.20 259.75
  A 1.01 1.00 90.0 0 0 399.20 260.76
  L 399.27 274.23
  A 1.00 1.00 0.0 0 0 400.26 275.22
  Q 404.28 275.28 408.30 275.25
  C 409.04 275.24 410.00 274.65 409.21 273.88
  A 1.04 1.03 67.5 0 0 408.52 273.59
  L 402.46 273.46
  A 1.00 1.00 0.0 0 1 401.48 272.38
  L 401.75 269.22
  A 1.00 1.00 0.0 0 1 402.66 268.31
  C 403.54 268.23 408.41 268.84 407.77 267.16
  A 0.81 0.80 80.6 0 0 407.05 266.64
  L 402.71 266.50
  A 1.01 1.01 0.0 0 1 401.74 265.58"
/>
<path stroke="#77cbeb" vector-effect="non-scaling-stroke" d="
  M 223.99 327.91
  C 195.13 295.18 237.54 251.44 270.06 279.98
  A 1.01 1.00 -47.5 0 0 271.45 279.91
  L 286.19 264.43
  Q 289.37 261.09 285.53 263.65
  Q 285.15 263.91 284.73 264.24
  Q 280.91 267.35 277.17 270.51
  A 1.01 1.00 44.2 0 1 275.89 270.52
  C 249.67 249.11 211.09 262.19 204.42 295.63
  Q 200.28 316.42 214.69 334.12
  A 0.99 0.99 0.0 0 1 214.69 335.38
  Q 210.50 340.49 206.38 346.10
  C 204.30 348.94 206.62 346.98 206.78 346.83
  Q 215.77 338.02 223.97 329.26
  A 1.01 1.00 46.1 0 0 223.99 327.91"
/>
<path stroke="#77cbeb" vector-effect="non-scaling-stroke" d="
  M 521.99 322.93
  L 527.54 323.03
  A 1.00 1.00 0.0 0 0 528.56 322.02
  Q 528.36 310.75 528.62 299.91
  C 528.91 287.66 544.18 283.96 549.45 294.54
  Q 550.79 297.23 550.76 302.70
  Q 550.72 312.45 550.77 321.99
  A 1.00 1.00 0.0 0 0 551.77 322.98
  L 557.22 323.01
  A 1.00 1.00 0.0 0 0 558.23 322.02
  C 558.28 313.49 559.60 299.86 556.85 292.67
  C 553.93 285.04 543.97 279.56 536.31 281.84
  Q 533.02 282.82 530.01 284.02
  A 1.00 1.00 0.0 0 1 528.64 283.10
  L 528.44 269.48
  A 1.00 0.99 -0.3 0 0 527.44 268.50
  L 522.00 268.50
  A 1.00 1.00 0.0 0 0 521.00 269.50
  L 521.01 321.93
  A 1.00 1.00 0.0 0 0 521.99 322.93"
/>
<path stroke="#77cbeb" vector-effect="non-scaling-stroke" d="
  M 569.4678 269.6712
  A 1.18 1.18 0.0 0 0 568.2816 268.4974
  L 563.4217 268.5228
  A 1.18 1.18 0.0 0 0 562.2478 269.7090
  L 562.2922 278.1888
  A 1.18 1.18 0.0 0 0 563.4784 279.3626
  L 568.3383 279.3372
  A 1.18 1.18 0.0 0 0 569.5122 278.1510
  L 569.4678 269.6712"
/>
<path stroke="#efbe85" vector-effect="non-scaling-stroke" d="
  M 220.69 340.02
  Q 235.17 351.69 252.65 350.09
  C 289.53 346.70 304.93 303.52 281.34 276.07
  A 1.03 1.01 31.6 0 1 281.12 275.19
  C 281.15 275.07 283.01 270.85 281.16 272.69
  Q 276.94 276.92 272.78 281.40
  A 1.01 1.00 47.9 0 0 272.72 282.70
  Q 274.40 284.84 275.90 287.06
  C 297.87 319.47 257.19 356.09 226.63 330.80
  A 1.00 0.99 42.3 0 0 225.29 330.86
  L 217.15 338.97
  Q 215.08 341.03 217.91 340.31
  L 219.82 339.83
  A 0.98 0.96 56.8 0 1 220.69 340.02"
/>
<path stroke="#77cbeb" vector-effect="non-scaling-stroke" d="
  M 615.04 301.81
  C 614.78 314.51 625.57 324.79 638.22 323.43
  C 643.59 322.85 647.18 322.28 644.84 315.35
  A 1.00 1.00 0.0 0 0 643.47 314.76
  C 625.36 323.27 613.34 297.03 630.92 289.24
  C 638.05 286.08 645.95 289.39 649.10 296.42
  C 651.25 301.20 650.59 308.93 650.67 314.71
  C 650.79 322.07 649.71 327.23 642.91 330.18
  C 634.38 333.87 628.67 330.00 623.64 323.24
  A 1.01 0.98 77.4 0 0 623.07 322.87
  Q 620.08 322.13 617.83 323.83
  A 1.01 1.00 61.9 0 0 617.49 324.96
  C 622.59 339.75 641.97 341.38 652.49 332.10
  C 659.87 325.59 657.74 314.37 657.76 305.88
  Q 657.77 297.81 656.39 294.29
  C 648.02 272.77 615.52 278.38 615.04 301.81"
/>
<path stroke="#77cbeb" vector-effect="non-scaling-stroke" d="
  M 336.51 302.47
  C 336.28 325.67 369.10 331.44 379.15 312.17
  Q 380.48 309.61 377.67 309.56
  L 372.97 309.47
  A 1.04 1.02 22.1 0 0 372.24 309.77
  C 370.50 311.55 368.85 313.66 366.73 314.81
  C 350.69 323.48 334.75 302.20 350.15 291.13
  C 357.07 286.16 367.41 287.58 371.67 295.40
  A 1.01 1.00 -14.7 0 0 372.57 295.92
  L 377.80 295.81
  Q 381.13 295.74 379.04 292.50
  Q 370.66 279.54 356.13 281.27
  C 345.13 282.57 336.62 291.23 336.51 302.47"
/>
<path stroke="#77cbeb" vector-effect="non-scaling-stroke" d="
  M 491.17 281.61
  C 469.64 286.45 468.20 317.23 490.06 322.84
  Q 505.69 326.86 515.26 314.57
  Q 517.74 311.38 516.65 309.96
  A 1.00 0.99 -18.0 0 0 515.88 309.57
  L 510.50 309.47
  A 0.99 0.98 -72.2 0 0 509.67 309.90
  C 497.71 326.97 472.15 308.77 484.93 293.92
  C 491.66 286.09 503.51 286.04 509.45 295.27
  A 1.04 1.01 79.1 0 0 510.08 295.71
  C 512.96 296.35 519.73 296.73 515.72 291.04
  Q 506.62 278.13 491.17 281.61"
/>
<path stroke="#77cbeb" vector-effect="non-scaling-stroke" d="
  M 424.40 302.53
  A 21.43 21.43 0.0 0 0 402.97 281.10
  A 21.43 21.43 0.0 0 0 381.54 302.53
  A 21.43 21.43 0.0 0 0 402.97 323.96
  A 21.43 21.43 0.0 0 0 424.40 302.53"
/>
<path stroke="#77cbeb" vector-effect="non-scaling-stroke" d="
  M 452.02 288.46
  C 466.65 290.89 463.67 312.46 463.45 321.98
  A 0.99 0.99 0.0 0 0 464.44 323.00
  L 469.49 323.00
  A 0.99 0.99 0.0 0 0 470.49 322.00
  Q 470.48 312.27 470.52 302.49
  C 470.60 280.58 442.08 273.24 431.09 291.18
  C 421.81 306.35 432.49 323.26 449.53 323.90
  Q 457.49 324.20 454.68 317.17
  A 1.01 1.00 -9.5 0 0 453.79 316.54
  Q 451.63 316.45 449.46 316.49
  C 429.34 316.87 431.55 285.06 452.02 288.46"
/>
<path stroke="#77cbeb" vector-effect="non-scaling-stroke" d="
  M 575.09 323.08
  L 580.24 322.87
  A 1.01 1.00 89.7 0 0 581.20 321.89
  Q 581.46 311.76 581.52 301.64
  Q 581.54 297.07 582.71 294.70
  C 587.04 285.94 599.33 286.31 603.00 295.35
  Q 603.98 297.78 603.99 302.91
  Q 604.01 312.41 604.00 321.78
  A 1.01 0.99 6.6 0 0 604.78 322.75
  Q 607.75 323.42 610.56 322.67
  A 1.01 1.00 83.7 0 0 611.30 321.74
  Q 611.67 312.26 611.38 299.68
  C 610.82 275.17 574.84 274.85 574.22 299.76
  Q 573.94 310.82 574.05 322.09
  A 1.00 1.00 0.0 0 0 575.09 323.08"
/>
<path stroke="#77cbeb" vector-effect="non-scaling-stroke" d="
  M 569.4672 283.7337
  A 1.66 1.66 0.0 0 0 567.8043 282.0766
  L 563.8843 282.0835
  A 1.66 1.66 0.0 0 0 562.2272 283.7463
  L 562.2928 321.3463
  A 1.66 1.66 0.0 0 0 563.9557 323.0034
  L 567.8757 322.9965
  A 1.66 1.66 0.0 0 0 569.5328 321.3337
  L 569.4672 283.7337"
/>
<path stroke="#77cbeb" vector-effect="non-scaling-stroke" d="
  M 239.54 318.25
  L 240.10 321.65
  A 1.01 0.99 -2.9 0 0 241.03 322.48
  Q 242.75 322.59 244.46 322.87
  C 250.33 323.86 256.03 322.85 261.43 320.38
  C 263.87 319.27 264.08 317.60 263.46 315.25"
/>
<path stroke="#efbe85" vector-effect="non-scaling-stroke" d="
  M 263.46 315.25
  L 263.44 309.53
  A 1.00 1.00 0.0 0 0 262.50 308.53
  L 258.17 308.28
  A 0.99 0.99 0.0 0 1 257.23 307.30
  L 256.98 285.60
  Q 256.95 282.56 255.48 285.23
  L 245.34 303.69
  A 1.01 1.00 -60.5 0 0 245.71 305.04
  L 249.28 307.10
  A 0.44 0.39 88.2 0 1 249.45 307.28
  Q 249.66 307.75 249.00 307.73
  Q 232.02 307.40 227.56 307.42
  C 227.33 307.42 225.86 308.05 227.04 308.32
  Q 235.65 310.36 239.54 318.25"
/>
<path stroke="#7fa186" vector-effect="non-scaling-stroke" d="
  M 263.46 315.25
  C 255.17 319.86 248.86 319.34 239.54 318.25"
/>
<path stroke="#efbe85" vector-effect="non-scaling-stroke" d="
  M 354.66 342.66
  A 6.87 6.87 0.0 0 0 347.79 335.79
  A 6.87 6.87 0.0 0 0 340.92 342.66
  A 6.87 6.87 0.0 0 0 347.79 349.53
  A 6.87 6.87 0.0 0 0 354.66 342.66"
/>
<path stroke="#efbe85" vector-effect="non-scaling-stroke" d="
  M 400.75 337.37
  Q 396.05 335.12 391.07 336.04
  A 1.00 1.00 0.0 0 0 390.25 337.02
  L 390.25 348.43
  A 1.00 1.00 0.0 0 0 391.19 349.43
  Q 396.78 349.74 398.26 348.99
  Q 404.41 345.91 401.24 337.91
  A 1.00 0.97 -87.9 0 0 400.75 337.37"
/>
<path stroke="#efbe85" vector-effect="non-scaling-stroke" d="
  M 437.97 341.09
  C 437.69 340.62 434.44 334.01 433.38 336.28
  A 0.79 0.79 0.0 0 0 433.43 337.05
  C 436.10 341.22 438.14 343.52 438.04 348.77
  A 1.01 1.00 16.4 0 0 438.52 349.64
  C 440.12 350.62 439.77 346.01 439.81 345.43
  C 440.03 342.82 442.88 339.18 444.29 336.92
  A 0.64 0.62 45.7 0 0 444.29 336.25
  C 443.12 334.33 440.04 340.40 439.73 341.03
  Q 438.91 342.70 437.97 341.09"
/>
<path stroke="#efbe85" vector-effect="non-scaling-stroke" d="
  M 603.52 341.12
  Q 602.27 338.73 600.76 336.49
  C 600.39 335.93 599.57 335.61 599.08 336.12
  A 0.80 0.79 -40.8 0 0 599.00 337.14
  Q 601.27 340.34 603.00 343.87
  C 603.78 345.47 603.47 347.15 603.52 348.89
  A 0.64 0.64 0.0 0 0 604.26 349.50
  L 604.52 349.46
  A 1.00 0.99 -9.6 0 0 605.35 348.30
  C 604.56 343.76 607.64 340.67 609.72 337.09
  A 0.80 0.80 0.0 0 0 609.33 335.95
  Q 608.60 335.64 608.03 336.56
  Q 606.62 338.82 605.27 341.16
  Q 604.37 342.74 603.52 341.12"
/>
<path stroke="#efbe85" vector-effect="non-scaling-stroke" d="
  M 482.07 344.52
  A 1.00 1.00 0.0 0 1 482.38 346.13
  Q 479.61 348.98 476.75 346.95
  A 1.01 0.99 58.1 0 0 476.05 346.78
  C 474.31 347.00 475.60 348.43 476.35 348.79
  C 479.84 350.47 486.16 348.12 483.26 343.53
  C 482.21 341.86 479.18 341.32 477.31 340.33
  A 1.00 1.00 0.0 0 1 477.13 338.68
  Q 479.43 336.72 481.61 337.92
  C 482.33 338.32 484.00 338.62 483.35 337.13
  A 1.04 1.01 -87.6 0 0 482.90 336.63
  C 479.16 334.68 473.30 337.23 476.39 341.86
  A 1.05 0.92 81.3 0 0 476.82 342.22
  L 482.07 344.52"
/>
<path stroke="#efbe85" vector-effect="non-scaling-stroke" d="
  M 525.43 345.55
  C 524.25 350.41 516.18 344.51 519.69 348.68
  A 1.03 0.99 -10.4 0 0 520.17 349.00
  Q 526.99 351.05 527.38 344.38
  A 1.02 1.01 -69.0 0 0 527.02 343.56
  Q 524.57 341.50 521.36 340.93
  A 1.00 1.00 0.0 0 1 520.65 339.47
  C 522.59 335.86 527.56 339.98 526.62 337.05
  A 1.05 1.02 -88.3 0 0 526.04 336.42
  C 522.43 334.97 516.84 337.26 519.59 341.73
  A 1.06 1.04 -3.0 0 0 520.02 342.11
  L 524.89 344.41
  A 0.99 0.98 -70.7 0 1 525.43 345.55"
/>
<path stroke="#efbe85" vector-effect="non-scaling-stroke" d="
  M 561.25 346.66
  L 561.16 344.29
  A 1.00 1.00 0.0 0 1 562.16 343.25
  L 566.20 343.25
  A 0.52 0.51 3.8 0 0 566.71 342.81
  L 566.76 342.46
  A 0.41 0.41 0.0 0 0 566.36 341.99
  L 562.25 341.93
  A 1.01 1.00 88.8 0 1 561.27 340.99
  L 561.11 338.63
  A 0.99 0.99 0.0 0 1 562.06 337.57
  C 562.57 337.54 568.44 338.04 567.76 336.46
  A 0.79 0.79 0.0 0 0 567.02 335.98
  L 560.29 336.04
  A 1.00 1.00 0.0 0 0 559.30 337.06
  L 559.48 348.48
  A 1.00 0.99 -1.4 0 0 560.52 349.46
  L 566.91 349.20
  A 0.80 0.80 0.0 0 0 567.67 348.28
  C 567.53 347.37 563.36 347.86 562.05 347.60
  A 1.01 1.00 4.8 0 1 561.25 346.66"
/>
<path stroke="#77cbeb" vector-effect="non-scaling-stroke" d="
  M 417.04 302.51
  A 14.03 14.03 0.0 0 0 403.01 288.48
  A 14.03 14.03 0.0 0 0 388.98 302.51
  A 14.03 14.03 0.0 0 0 403.01 316.54
  A 14.03 14.03 0.0 0 0 417.04 302.51"
/>
<path stroke="#efbe85" vector-effect="non-scaling-stroke" d="
  M 347.5532 347.8746
  A 5.22 4.85 92.6 0 0 352.6350 342.8800
  A 5.22 4.85 92.6 0 0 348.0268 337.4454
  A 5.22 4.85 92.6 0 0 342.9450 342.4400
  A 5.22 4.85 92.6 0 0 347.5532 347.8746"
/>
<path stroke="#efbe85" vector-effect="non-scaling-stroke" d="
  M 397.94 347.20
  C 403.32 342.81 399.38 335.93 393.00 337.77
  A 1.01 1.01 0.0 0 0 392.28 338.75
  L 392.41 346.73
  A 1.01 1.00 87.3 0 0 393.49 347.72
  L 397.39 347.42
  A 1.06 1.03 22.3 0 0 397.94 347.20"
/>
</g>
<path fill="#e7e8ea" d="
  M 0.00 0.00
  L 900.00 0.00
  L 900.00 618.00
  L 0.00 618.00
  L 0.00 0.00
  Z
  M 322.00 259.11
  A 0.86 0.86 0.0 0 0 321.14 258.25
  L 319.86 258.25
  A 0.86 0.86 0.0 0 0 319.00 259.11
  L 319.00 348.65
  A 0.86 0.86 0.0 0 0 319.86 349.51
  L 321.14 349.51
  A 0.86 0.86 0.0 0 0 322.00 348.65
  L 322.00 259.11
  Z
  M 347.31 262.78
  L 347.00 274.15
  A 0.99 0.97 -75.9 0 0 347.53 275.06
  C 349.72 276.21 349.85 273.91 349.77 272.45
  Q 349.50 267.49 349.73 262.45
  A 1.00 1.00 0.0 0 1 350.73 261.50
  L 353.72 261.50
  A 0.80 0.79 -75.0 0 0 354.41 261.10
  C 354.93 260.19 353.81 259.79 353.08 259.78
  C 349.80 259.72 340.25 258.98 342.25 261.39
  A 1.00 1.00 0.0 0 0 343.02 261.75
  L 346.31 261.75
  A 1.00 1.00 0.0 0 1 347.31 262.78
  Z
  M 372.88 268.25
  L 379.50 268.25
  A 1.00 1.00 0.0 0 1 380.50 269.25
  L 380.50 274.31
  A 0.99 0.99 0.0 0 0 381.06 275.20
  Q 381.91 275.62 382.44 274.97
  C 383.23 274.01 382.50 262.79 382.46 260.79
  A 1.01 1.00 -74.0 0 0 382.01 259.97
  C 379.77 258.51 380.52 264.64 380.43 265.67
  A 1.01 1.00 1.6 0 1 379.46 266.58
  L 373.03 266.80
  A 1.00 1.00 0.0 0 1 372.00 265.80
  L 372.00 260.89
  A 1.00 0.99 6.9 0 0 371.22 259.91
  L 370.97 259.86
  A 1.00 1.00 0.0 0 0 369.75 260.83
  L 369.75 274.33
  A 1.00 1.00 0.0 0 0 370.75 275.33
  L 371.10 275.33
  A 0.80 0.80 0.0 0 0 371.90 274.53
  L 371.89 269.25
  A 0.99 0.99 0.0 0 1 372.88 268.25
  Z
  M 401.74 265.58
  L 401.51 262.86
  A 1.01 1.00 87.1 0 1 402.49 261.77
  Q 405.21 261.72 407.94 261.76
  C 408.76 261.77 409.50 261.50 409.31 260.55
  A 1.01 1.00 83.9 0 0 408.33 259.75
  L 400.20 259.75
  A 1.01 1.00 90.0 0 0 399.20 260.76
  L 399.27 274.23
  A 1.00 1.00 0.0 0 0 400.26 275.22
  Q 404.28 275.28 408.30 275.25
  C 409.04 275.24 410.00 274.65 409.21 273.88
  A 1.04 1.03 67.5 0 0 408.52 273.59
  L 402.46 273.46
  A 1.00 1.00 0.0 0 1 401.48 272.38
  L 401.75 269.22
  A 1.00 1.00 0.0 0 1 402.66 268.31
  C 403.54 268.23 408.41 268.84 407.77 267.16
  A 0.81 0.80 80.6 0 0 407.05 266.64
  L 402.71 266.50
  A 1.01 1.01 0.0 0 1 401.74 265.58
  Z
  M 223.99 327.91
  C 195.13 295.18 237.54 251.44 270.06 279.98
  A 1.01 1.00 -47.5 0 0 271.45 279.91
  L 286.19 264.43
  Q 289.37 261.09 285.53 263.65
  Q 285.15 263.91 284.73 264.24
  Q 280.91 267.35 277.17 270.51
  A 1.01 1.00 44.2 0 1 275.89 270.52
  C 249.67 249.11 211.09 262.19 204.42 295.63
  Q 200.28 316.42 214.69 334.12
  A 0.99 0.99 0.0 0 1 214.69 335.38
  Q 210.50 340.49 206.38 346.10
  C 204.30 348.94 206.62 346.98 206.78 346.83
  Q 215.77 338.02 223.97 329.26
  A 1.01 1.00 46.1 0 0 223.99 327.91
  Z
  M 521.99 322.93
  L 527.54 323.03
  A 1.00 1.00 0.0 0 0 528.56 322.02
  Q 528.36 310.75 528.62 299.91
  C 528.91 287.66 544.18 283.96 549.45 294.54
  Q 550.79 297.23 550.76 302.70
  Q 550.72 312.45 550.77 321.99
  A 1.00 1.00 0.0 0 0 551.77 322.98
  L 557.22 323.01
  A 1.00 1.00 0.0 0 0 558.23 322.02
  C 558.28 313.49 559.60 299.86 556.85 292.67
  C 553.93 285.04 543.97 279.56 536.31 281.84
  Q 533.02 282.82 530.01 284.02
  A 1.00 1.00 0.0 0 1 528.64 283.10
  L 528.44 269.48
  A 1.00 0.99 -0.3 0 0 527.44 268.50
  L 522.00 268.50
  A 1.00 1.00 0.0 0 0 521.00 269.50
  L 521.01 321.93
  A 1.00 1.00 0.0 0 0 521.99 322.93
  Z
  M 569.4678 269.6712
  A 1.18 1.18 0.0 0 0 568.2816 268.4974
  L 563.4217 268.5228
  A 1.18 1.18 0.0 0 0 562.2478 269.7090
  L 562.2922 278.1888
  A 1.18 1.18 0.0 0 0 563.4784 279.3626
  L 568.3383 279.3372
  A 1.18 1.18 0.0 0 0 569.5122 278.1510
  L 569.4678 269.6712
  Z
  M 220.69 340.02
  Q 235.17 351.69 252.65 350.09
  C 289.53 346.70 304.93 303.52 281.34 276.07
  A 1.03 1.01 31.6 0 1 281.12 275.19
  C 281.15 275.07 283.01 270.85 281.16 272.69
  Q 276.94 276.92 272.78 281.40
  A 1.01 1.00 47.9 0 0 272.72 282.70
  Q 274.40 284.84 275.90 287.06
  C 297.87 319.47 257.19 356.09 226.63 330.80
  A 1.00 0.99 42.3 0 0 225.29 330.86
  L 217.15 338.97
  Q 215.08 341.03 217.91 340.31
  L 219.82 339.83
  A 0.98 0.96 56.8 0 1 220.69 340.02
  Z
  M 615.04 301.81
  C 614.78 314.51 625.57 324.79 638.22 323.43
  C 643.59 322.85 647.18 322.28 644.84 315.35
  A 1.00 1.00 0.0 0 0 643.47 314.76
  C 625.36 323.27 613.34 297.03 630.92 289.24
  C 638.05 286.08 645.95 289.39 649.10 296.42
  C 651.25 301.20 650.59 308.93 650.67 314.71
  C 650.79 322.07 649.71 327.23 642.91 330.18
  C 634.38 333.87 628.67 330.00 623.64 323.24
  A 1.01 0.98 77.4 0 0 623.07 322.87
  Q 620.08 322.13 617.83 323.83
  A 1.01 1.00 61.9 0 0 617.49 324.96
  C 622.59 339.75 641.97 341.38 652.49 332.10
  C 659.87 325.59 657.74 314.37 657.76 305.88
  Q 657.77 297.81 656.39 294.29
  C 648.02 272.77 615.52 278.38 615.04 301.81
  Z
  M 336.51 302.47
  C 336.28 325.67 369.10 331.44 379.15 312.17
  Q 380.48 309.61 377.67 309.56
  L 372.97 309.47
  A 1.04 1.02 22.1 0 0 372.24 309.77
  C 370.50 311.55 368.85 313.66 366.73 314.81
  C 350.69 323.48 334.75 302.20 350.15 291.13
  C 357.07 286.16 367.41 287.58 371.67 295.40
  A 1.01 1.00 -14.7 0 0 372.57 295.92
  L 377.80 295.81
  Q 381.13 295.74 379.04 292.50
  Q 370.66 279.54 356.13 281.27
  C 345.13 282.57 336.62 291.23 336.51 302.47
  Z
  M 491.17 281.61
  C 469.64 286.45 468.20 317.23 490.06 322.84
  Q 505.69 326.86 515.26 314.57
  Q 517.74 311.38 516.65 309.96
  A 1.00 0.99 -18.0 0 0 515.88 309.57
  L 510.50 309.47
  A 0.99 0.98 -72.2 0 0 509.67 309.90
  C 497.71 326.97 472.15 308.77 484.93 293.92
  C 491.66 286.09 503.51 286.04 509.45 295.27
  A 1.04 1.01 79.1 0 0 510.08 295.71
  C 512.96 296.35 519.73 296.73 515.72 291.04
  Q 506.62 278.13 491.17 281.61
  Z
  M 424.40 302.53
  A 21.43 21.43 0.0 0 0 402.97 281.10
  A 21.43 21.43 0.0 0 0 381.54 302.53
  A 21.43 21.43 0.0 0 0 402.97 323.96
  A 21.43 21.43 0.0 0 0 424.40 302.53
  Z
  M 452.02 288.46
  C 466.65 290.89 463.67 312.46 463.45 321.98
  A 0.99 0.99 0.0 0 0 464.44 323.00
  L 469.49 323.00
  A 0.99 0.99 0.0 0 0 470.49 322.00
  Q 470.48 312.27 470.52 302.49
  C 470.60 280.58 442.08 273.24 431.09 291.18
  C 421.81 306.35 432.49 323.26 449.53 323.90
  Q 457.49 324.20 454.68 317.17
  A 1.01 1.00 -9.5 0 0 453.79 316.54
  Q 451.63 316.45 449.46 316.49
  C 429.34 316.87 431.55 285.06 452.02 288.46
  Z
  M 575.09 323.08
  L 580.24 322.87
  A 1.01 1.00 89.7 0 0 581.20 321.89
  Q 581.46 311.76 581.52 301.64
  Q 581.54 297.07 582.71 294.70
  C 587.04 285.94 599.33 286.31 603.00 295.35
  Q 603.98 297.78 603.99 302.91
  Q 604.01 312.41 604.00 321.78
  A 1.01 0.99 6.6 0 0 604.78 322.75
  Q 607.75 323.42 610.56 322.67
  A 1.01 1.00 83.7 0 0 611.30 321.74
  Q 611.67 312.26 611.38 299.68
  C 610.82 275.17 574.84 274.85 574.22 299.76
  Q 573.94 310.82 574.05 322.09
  A 1.00 1.00 0.0 0 0 575.09 323.08
  Z
  M 569.4672 283.7337
  A 1.66 1.66 0.0 0 0 567.8043 282.0766
  L 563.8843 282.0835
  A 1.66 1.66 0.0 0 0 562.2272 283.7463
  L 562.2928 321.3463
  A 1.66 1.66 0.0 0 0 563.9557 323.0034
  L 567.8757 322.9965
  A 1.66 1.66 0.0 0 0 569.5328 321.3337
  L 569.4672 283.7337
  Z
  M 239.54 318.25
  L 240.10 321.65
  A 1.01 0.99 -2.9 0 0 241.03 322.48
  Q 242.75 322.59 244.46 322.87
  C 250.33 323.86 256.03 322.85 261.43 320.38
  C 263.87 319.27 264.08 317.60 263.46 315.25
  L 263.44 309.53
  A 1.00 1.00 0.0 0 0 262.50 308.53
  L 258.17 308.28
  A 0.99 0.99 0.0 0 1 257.23 307.30
  L 256.98 285.60
  Q 256.95 282.56 255.48 285.23
  L 245.34 303.69
  A 1.01 1.00 -60.5 0 0 245.71 305.04
  L 249.28 307.10
  A 0.44 0.39 88.2 0 1 249.45 307.28
  Q 249.66 307.75 249.00 307.73
  Q 232.02 307.40 227.56 307.42
  C 227.33 307.42 225.86 308.05 227.04 308.32
  Q 235.65 310.36 239.54 318.25
  Z
  M 354.66 342.66
  A 6.87 6.87 0.0 0 0 347.79 335.79
  A 6.87 6.87 0.0 0 0 340.92 342.66
  A 6.87 6.87 0.0 0 0 347.79 349.53
  A 6.87 6.87 0.0 0 0 354.66 342.66
  Z
  M 400.75 337.37
  Q 396.05 335.12 391.07 336.04
  A 1.00 1.00 0.0 0 0 390.25 337.02
  L 390.25 348.43
  A 1.00 1.00 0.0 0 0 391.19 349.43
  Q 396.78 349.74 398.26 348.99
  Q 404.41 345.91 401.24 337.91
  A 1.00 0.97 -87.9 0 0 400.75 337.37
  Z
  M 437.97 341.09
  C 437.69 340.62 434.44 334.01 433.38 336.28
  A 0.79 0.79 0.0 0 0 433.43 337.05
  C 436.10 341.22 438.14 343.52 438.04 348.77
  A 1.01 1.00 16.4 0 0 438.52 349.64
  C 440.12 350.62 439.77 346.01 439.81 345.43
  C 440.03 342.82 442.88 339.18 444.29 336.92
  A 0.64 0.62 45.7 0 0 444.29 336.25
  C 443.12 334.33 440.04 340.40 439.73 341.03
  Q 438.91 342.70 437.97 341.09
  Z
  M 603.52 341.12
  Q 602.27 338.73 600.76 336.49
  C 600.39 335.93 599.57 335.61 599.08 336.12
  A 0.80 0.79 -40.8 0 0 599.00 337.14
  Q 601.27 340.34 603.00 343.87
  C 603.78 345.47 603.47 347.15 603.52 348.89
  A 0.64 0.64 0.0 0 0 604.26 349.50
  L 604.52 349.46
  A 1.00 0.99 -9.6 0 0 605.35 348.30
  C 604.56 343.76 607.64 340.67 609.72 337.09
  A 0.80 0.80 0.0 0 0 609.33 335.95
  Q 608.60 335.64 608.03 336.56
  Q 606.62 338.82 605.27 341.16
  Q 604.37 342.74 603.52 341.12
  Z
  M 482.07 344.52
  A 1.00 1.00 0.0 0 1 482.38 346.13
  Q 479.61 348.98 476.75 346.95
  A 1.01 0.99 58.1 0 0 476.05 346.78
  C 474.31 347.00 475.60 348.43 476.35 348.79
  C 479.84 350.47 486.16 348.12 483.26 343.53
  C 482.21 341.86 479.18 341.32 477.31 340.33
  A 1.00 1.00 0.0 0 1 477.13 338.68
  Q 479.43 336.72 481.61 337.92
  C 482.33 338.32 484.00 338.62 483.35 337.13
  A 1.04 1.01 -87.6 0 0 482.90 336.63
  C 479.16 334.68 473.30 337.23 476.39 341.86
  A 1.05 0.92 81.3 0 0 476.82 342.22
  L 482.07 344.52
  Z
  M 525.43 345.55
  C 524.25 350.41 516.18 344.51 519.69 348.68
  A 1.03 0.99 -10.4 0 0 520.17 349.00
  Q 526.99 351.05 527.38 344.38
  A 1.02 1.01 -69.0 0 0 527.02 343.56
  Q 524.57 341.50 521.36 340.93
  A 1.00 1.00 0.0 0 1 520.65 339.47
  C 522.59 335.86 527.56 339.98 526.62 337.05
  A 1.05 1.02 -88.3 0 0 526.04 336.42
  C 522.43 334.97 516.84 337.26 519.59 341.73
  A 1.06 1.04 -3.0 0 0 520.02 342.11
  L 524.89 344.41
  A 0.99 0.98 -70.7 0 1 525.43 345.55
  Z
  M 561.25 346.66
  L 561.16 344.29
  A 1.00 1.00 0.0 0 1 562.16 343.25
  L 566.20 343.25
  A 0.52 0.51 3.8 0 0 566.71 342.81
  L 566.76 342.46
  A 0.41 0.41 0.0 0 0 566.36 341.99
  L 562.25 341.93
  A 1.01 1.00 88.8 0 1 561.27 340.99
  L 561.11 338.63
  A 0.99 0.99 0.0 0 1 562.06 337.57
  C 562.57 337.54 568.44 338.04 567.76 336.46
  A 0.79 0.79 0.0 0 0 567.02 335.98
  L 560.29 336.04
  A 1.00 1.00 0.0 0 0 559.30 337.06
  L 559.48 348.48
  A 1.00 0.99 -1.4 0 0 560.52 349.46
  L 566.91 349.20
  A 0.80 0.80 0.0 0 0 567.67 348.28
  C 567.53 347.37 563.36 347.86 562.05 347.60
  A 1.01 1.00 4.8 0 1 561.25 346.66
  Z"
/>
<rect fill="#07adec" x="319.00" y="258.25" width="3.00" height="91.26" rx="0.86"/>
<path fill="#f69420" d="
  M 346.31 261.75
  L 343.02 261.75
  A 1.00 1.00 0.0 0 1 342.25 261.39
  C 340.25 258.98 349.80 259.72 353.08 259.78
  C 353.81 259.79 354.93 260.19 354.41 261.10
  A 0.80 0.79 -75.0 0 1 353.72 261.50
  L 350.73 261.50
  A 1.00 1.00 0.0 0 0 349.73 262.45
  Q 349.50 267.49 349.77 272.45
  C 349.85 273.91 349.72 276.21 347.53 275.06
  A 0.99 0.97 -75.9 0 1 347.00 274.15
  L 347.31 262.78
  A 1.00 1.00 0.0 0 0 346.31 261.75
  Z"
/>
<path fill="#f69420" d="
  M 371.89 269.25
  L 371.90 274.53
  A 0.80 0.80 0.0 0 1 371.10 275.33
  L 370.75 275.33
  A 1.00 1.00 0.0 0 1 369.75 274.33
  L 369.75 260.83
  A 1.00 1.00 0.0 0 1 370.97 259.86
  L 371.22 259.91
  A 1.00 0.99 6.9 0 1 372.00 260.89
  L 372.00 265.80
  A 1.00 1.00 0.0 0 0 373.03 266.80
  L 379.46 266.58
  A 1.01 1.00 1.6 0 0 380.43 265.67
  C 380.52 264.64 379.77 258.51 382.01 259.97
  A 1.01 1.00 -74.0 0 1 382.46 260.79
  C 382.50 262.79 383.23 274.01 382.44 274.97
  Q 381.91 275.62 381.06 275.20
  A 0.99 0.99 0.0 0 1 380.50 274.31
  L 380.50 269.25
  A 1.00 1.00 0.0 0 0 379.50 268.25
  L 372.88 268.25
  A 0.99 0.99 0.0 0 0 371.89 269.25
  Z"
/>
<path fill="#f69420" d="
  M 402.71 266.50
  L 407.05 266.64
  A 0.81 0.80 80.6 0 1 407.77 267.16
  C 408.41 268.84 403.54 268.23 402.66 268.31
  A 1.00 1.00 0.0 0 0 401.75 269.22
  L 401.48 272.38
  A 1.00 1.00 0.0 0 0 402.46 273.46
  L 408.52 273.59
  A 1.04 1.03 67.5 0 1 409.21 273.88
  C 410.00 274.65 409.04 275.24 408.30 275.25
  Q 404.28 275.28 400.26 275.22
  A 1.00 1.00 0.0 0 1 399.27 274.23
  L 399.20 260.76
  A 1.01 1.00 -90.0 0 1 400.20 259.75
  L 408.33 259.75
  A 1.01 1.00 83.9 0 1 409.31 260.55
  C 409.50 261.50 408.76 261.77 407.94 261.76
  Q 405.21 261.72 402.49 261.77
  A 1.01 1.00 87.1 0 0 401.51 262.86
  L 401.74 265.58
  A 1.01 1.01 0.0 0 0 402.71 266.50
  Z"
/>
<path fill="#07adec" d="
  M 223.99 327.91
  A 1.01 1.00 46.1 0 1 223.97 329.26
  Q 215.77 338.02 206.78 346.83
  C 206.62 346.98 204.30 348.94 206.38 346.10
  Q 210.50 340.49 214.69 335.38
  A 0.99 0.99 0.0 0 0 214.69 334.12
  Q 200.28 316.42 204.42 295.63
  C 211.09 262.19 249.67 249.11 275.89 270.52
  A 1.01 1.00 44.2 0 0 277.17 270.51
  Q 280.91 267.35 284.73 264.24
  Q 285.15 263.91 285.53 263.65
  Q 289.37 261.09 286.19 264.43
  L 271.45 279.91
  A 1.01 1.00 -47.5 0 1 270.06 279.98
  C 237.54 251.44 195.13 295.18 223.99 327.91
  Z"
/>
<path fill="#07adec" d="
  M 521.99 322.93
  A 1.00 1.00 0.0 0 1 521.01 321.93
  L 521.00 269.50
  A 1.00 1.00 0.0 0 1 522.00 268.50
  L 527.44 268.50
  A 1.00 0.99 -0.3 0 1 528.44 269.48
  L 528.64 283.10
  A 1.00 1.00 0.0 0 0 530.01 284.02
  Q 533.02 282.82 536.31 281.84
  C 543.97 279.56 553.93 285.04 556.85 292.67
  C 559.60 299.86 558.28 313.49 558.23 322.02
  A 1.00 1.00 0.0 0 1 557.22 323.01
  L 551.77 322.98
  A 1.00 1.00 0.0 0 1 550.77 321.99
  Q 550.72 312.45 550.76 302.70
  Q 550.79 297.23 549.45 294.54
  C 544.18 283.96 528.91 287.66 528.62 299.91
  Q 528.36 310.75 528.56 322.02
  A 1.00 1.00 0.0 0 1 527.54 323.03
  L 521.99 322.93
  Z"
/>
<rect fill="#07adec" x="-3.61" y="-5.42" transform="translate(565.88,273.93) rotate(-0.3)" width="7.22" height="10.84" rx="1.18"/>
<path fill="#f69420" d="
  M 220.69 340.02
  A 0.98 0.96 56.8 0 0 219.82 339.83
  L 217.91 340.31
  Q 215.08 341.03 217.15 338.97
  L 225.29 330.86
  A 1.00 0.99 42.3 0 1 226.63 330.80
  C 257.19 356.09 297.87 319.47 275.90 287.06
  Q 274.40 284.84 272.72 282.70
  A 1.01 1.00 47.9 0 1 272.78 281.40
  Q 276.94 276.92 281.16 272.69
  C 283.01 270.85 281.15 275.07 281.12 275.19
  A 1.03 1.01 31.6 0 0 281.34 276.07
  C 304.93 303.52 289.53 346.70 252.65 350.09
  Q 235.17 351.69 220.69 340.02
  Z"
/>
<path fill="#07adec" d="
  M 638.22 323.43
  C 625.57 324.79 614.78 314.51 615.04 301.81
  C 615.52 278.38 648.02 272.77 656.39 294.29
  Q 657.77 297.81 657.76 305.88
  C 657.74 314.37 659.87 325.59 652.49 332.10
  C 641.97 341.38 622.59 339.75 617.49 324.96
  A 1.01 1.00 61.9 0 1 617.83 323.83
  Q 620.08 322.13 623.07 322.87
  A 1.01 0.98 77.4 0 1 623.64 323.24
  C 628.67 330.00 634.38 333.87 642.91 330.18
  C 649.71 327.23 650.79 322.07 650.67 314.71
  C 650.59 308.93 651.25 301.20 649.10 296.42
  C 645.95 289.39 638.05 286.08 630.92 289.24
  C 613.34 297.03 625.36 323.27 643.47 314.76
  A 1.00 1.00 0.0 0 1 644.84 315.35
  C 647.18 322.28 643.59 322.85 638.22 323.43
  Z"
/>
<path fill="#07adec" d="
  M 379.15 312.17
  C 369.10 331.44 336.28 325.67 336.51 302.47
  C 336.62 291.23 345.13 282.57 356.13 281.27
  Q 370.66 279.54 379.04 292.50
  Q 381.13 295.74 377.80 295.81
  L 372.57 295.92
  A 1.01 1.00 -14.7 0 1 371.67 295.40
  C 367.41 287.58 357.07 286.16 350.15 291.13
  C 334.75 302.20 350.69 323.48 366.73 314.81
  C 368.85 313.66 370.50 311.55 372.24 309.77
  A 1.04 1.02 22.1 0 1 372.97 309.47
  L 377.67 309.56
  Q 380.48 309.61 379.15 312.17
  Z"
/>
<path fill="#07adec" d="
  M 490.06 322.84
  C 468.20 317.23 469.64 286.45 491.17 281.61
  Q 506.62 278.13 515.72 291.04
  C 519.73 296.73 512.96 296.35 510.08 295.71
  A 1.04 1.01 79.1 0 1 509.45 295.27
  C 503.51 286.04 491.66 286.09 484.93 293.92
  C 472.15 308.77 497.71 326.97 509.67 309.90
  A 0.99 0.98 -72.2 0 1 510.50 309.47
  L 515.88 309.57
  A 1.00 0.99 -18.0 0 1 516.65 309.96
  Q 517.74 311.38 515.26 314.57
  Q 505.69 326.86 490.06 322.84
  Z"
/>
<path fill="#07adec" d="
  M 424.40 302.53
  A 21.43 21.43 0.0 0 1 402.97 323.96
  A 21.43 21.43 0.0 0 1 381.54 302.53
  A 21.43 21.43 0.0 0 1 402.97 281.10
  A 21.43 21.43 0.0 0 1 424.40 302.53
  Z
  M 417.04 302.51
  A 14.03 14.03 0.0 0 0 403.01 288.48
  A 14.03 14.03 0.0 0 0 388.98 302.51
  A 14.03 14.03 0.0 0 0 403.01 316.54
  A 14.03 14.03 0.0 0 0 417.04 302.51
  Z"
/>
<path fill="#07adec" d="
  M 463.45 321.98
  C 463.67 312.46 466.65 290.89 452.02 288.46
  C 431.55 285.06 429.34 316.87 449.46 316.49
  Q 451.63 316.45 453.79 316.54
  A 1.01 1.00 -9.5 0 1 454.68 317.17
  Q 457.49 324.20 449.53 323.90
  C 432.49 323.26 421.81 306.35 431.09 291.18
  C 442.08 273.24 470.60 280.58 470.52 302.49
  Q 470.48 312.27 470.49 322.00
  A 0.99 0.99 0.0 0 1 469.49 323.00
  L 464.44 323.00
  A 0.99 0.99 0.0 0 1 463.45 321.98
  Z"
/>
<path fill="#07adec" d="
  M 575.09 323.08
  A 1.00 1.00 0.0 0 1 574.05 322.09
  Q 573.94 310.82 574.22 299.76
  C 574.84 274.85 610.82 275.17 611.38 299.68
  Q 611.67 312.26 611.30 321.74
  A 1.01 1.00 83.7 0 1 610.56 322.67
  Q 607.75 323.42 604.78 322.75
  A 1.01 0.99 6.6 0 1 604.00 321.78
  Q 604.01 312.41 603.99 302.91
  Q 603.98 297.78 603.00 295.35
  C 599.33 286.31 587.04 285.94 582.71 294.70
  Q 581.54 297.07 581.52 301.64
  Q 581.46 311.76 581.20 321.89
  A 1.01 1.00 89.7 0 1 580.24 322.87
  L 575.09 323.08
  Z"
/>
<rect fill="#07adec" x="-3.62" y="-20.46" transform="translate(565.88,302.54) rotate(-0.1)" width="7.24" height="40.92" rx="1.66"/>
<path fill="#f69420" d="
  M 263.46 315.25
  C 255.17 319.86 248.86 319.34 239.54 318.25
  Q 235.65 310.36 227.04 308.32
  C 225.86 308.05 227.33 307.42 227.56 307.42
  Q 232.02 307.40 249.00 307.73
  Q 249.66 307.75 249.45 307.28
  A 0.44 0.39 88.2 0 0 249.28 307.10
  L 245.71 305.04
  A 1.01 1.00 -60.5 0 1 245.34 303.69
  L 255.48 285.23
  Q 256.95 282.56 256.98 285.60
  L 257.23 307.30
  A 0.99 0.99 0.0 0 0 258.17 308.28
  L 262.50 308.53
  A 1.00 1.00 0.0 0 1 263.44 309.53
  L 263.46 315.25
  Z"
/>
<circle fill="#e7e8ea" cx="403.01" cy="302.51" r="14.03"/>
<path fill="#07adec" d="
  M 263.46 315.25
  C 264.08 317.60 263.87 319.27 261.43 320.38
  C 256.03 322.85 250.33 323.86 244.46 322.87
  Q 242.75 322.59 241.03 322.48
  A 1.01 0.99 -2.9 0 1 240.10 321.65
  L 239.54 318.25
  C 248.86 319.34 255.17 319.86 263.46 315.25
  Z"
/>
<path fill="#f69420" d="
  M 354.66 342.66
  A 6.87 6.87 0.0 0 1 347.79 349.53
  A 6.87 6.87 0.0 0 1 340.92 342.66
  A 6.87 6.87 0.0 0 1 347.79 335.79
  A 6.87 6.87 0.0 0 1 354.66 342.66
  Z
  M 347.5532 347.8746
  A 5.22 4.85 92.6 0 0 352.6350 342.8800
  A 5.22 4.85 92.6 0 0 348.0268 337.4454
  A 5.22 4.85 92.6 0 0 342.9450 342.4400
  A 5.22 4.85 92.6 0 0 347.5532 347.8746
  Z"
/>
<path fill="#f69420" d="
  M 400.75 337.37
  A 1.00 0.97 -87.9 0 1 401.24 337.91
  Q 404.41 345.91 398.26 348.99
  Q 396.78 349.74 391.19 349.43
  A 1.00 1.00 0.0 0 1 390.25 348.43
  L 390.25 337.02
  A 1.00 1.00 0.0 0 1 391.07 336.04
  Q 396.05 335.12 400.75 337.37
  Z
  M 397.94 347.20
  C 403.32 342.81 399.38 335.93 393.00 337.77
  A 1.01 1.01 0.0 0 0 392.28 338.75
  L 392.41 346.73
  A 1.01 1.00 87.3 0 0 393.49 347.72
  L 397.39 347.42
  A 1.06 1.03 22.3 0 0 397.94 347.20
  Z"
/>
<path fill="#f69420" d="
  M 437.97 341.09
  Q 438.91 342.70 439.73 341.03
  C 440.04 340.40 443.12 334.33 444.29 336.25
  A 0.64 0.62 45.7 0 1 444.29 336.92
  C 442.88 339.18 440.03 342.82 439.81 345.43
  C 439.77 346.01 440.12 350.62 438.52 349.64
  A 1.01 1.00 16.4 0 1 438.04 348.77
  C 438.14 343.52 436.10 341.22 433.43 337.05
  A 0.79 0.79 0.0 0 1 433.38 336.28
  C 434.44 334.01 437.69 340.62 437.97 341.09
  Z"
/>
<path fill="#f69420" d="
  M 603.52 341.12
  Q 604.37 342.74 605.27 341.16
  Q 606.62 338.82 608.03 336.56
  Q 608.60 335.64 609.33 335.95
  A 0.80 0.80 0.0 0 1 609.72 337.09
  C 607.64 340.67 604.56 343.76 605.35 348.30
  A 1.00 0.99 -9.6 0 1 604.52 349.46
  L 604.26 349.50
  A 0.64 0.64 0.0 0 1 603.52 348.89
  C 603.47 347.15 603.78 345.47 603.00 343.87
  Q 601.27 340.34 599.00 337.14
  A 0.80 0.79 -40.8 0 1 599.08 336.12
  C 599.57 335.61 600.39 335.93 600.76 336.49
  Q 602.27 338.73 603.52 341.12
  Z"
/>
<path fill="#f69420" d="
  M 482.07 344.52
  L 476.82 342.22
  A 1.05 0.92 81.3 0 1 476.39 341.86
  C 473.30 337.23 479.16 334.68 482.90 336.63
  A 1.04 1.01 -87.6 0 1 483.35 337.13
  C 484.00 338.62 482.33 338.32 481.61 337.92
  Q 479.43 336.72 477.13 338.68
  A 1.00 1.00 0.0 0 0 477.31 340.33
  C 479.18 341.32 482.21 341.86 483.26 343.53
  C 486.16 348.12 479.84 350.47 476.35 348.79
  C 475.60 348.43 474.31 347.00 476.05 346.78
  A 1.01 0.99 58.1 0 1 476.75 346.95
  Q 479.61 348.98 482.38 346.13
  A 1.00 1.00 0.0 0 0 482.07 344.52
  Z"
/>
<path fill="#f69420" d="
  M 524.89 344.41
  L 520.02 342.11
  A 1.06 1.04 -3.0 0 1 519.59 341.73
  C 516.84 337.26 522.43 334.97 526.04 336.42
  A 1.05 1.02 -88.3 0 1 526.62 337.05
  C 527.56 339.98 522.59 335.86 520.65 339.47
  A 1.00 1.00 0.0 0 0 521.36 340.93
  Q 524.57 341.50 527.02 343.56
  A 1.02 1.01 -69.0 0 1 527.38 344.38
  Q 526.99 351.05 520.17 349.00
  A 1.03 0.99 -10.4 0 1 519.69 348.68
  C 516.18 344.51 524.25 350.41 525.43 345.55
  A 0.99 0.98 -70.7 0 0 524.89 344.41
  Z"
/>
<path fill="#f69420" d="
  M 562.05 347.60
  C 563.36 347.86 567.53 347.37 567.67 348.28
  A 0.80 0.80 0.0 0 1 566.91 349.20
  L 560.52 349.46
  A 1.00 0.99 -1.4 0 1 559.48 348.48
  L 559.30 337.06
  A 1.00 1.00 0.0 0 1 560.29 336.04
  L 567.02 335.98
  A 0.79 0.79 0.0 0 1 567.76 336.46
  C 568.44 338.04 562.57 337.54 562.06 337.57
  A 0.99 0.99 0.0 0 0 561.11 338.63
  L 561.27 340.99
  A 1.01 1.00 88.8 0 0 562.25 341.93
  L 566.36 341.99
  A 0.41 0.41 0.0 0 1 566.76 342.46
  L 566.71 342.81
  A 0.52 0.51 3.8 0 1 566.20 343.25
  L 562.16 343.25
  A 1.00 1.00 0.0 0 0 561.16 344.29
  L 561.25 346.66
  A 1.01 1.00 4.8 0 0 562.05 347.60
  Z"
/>
<ellipse fill="#e7e8ea" cx="0.00" cy="0.00" transform="translate(347.79,342.66) rotate(92.6)" rx="5.22" ry="4.85"/>
<path fill="#e7e8ea" d="
  M 393.00 337.77
  C 399.38 335.93 403.32 342.81 397.94 347.20
  A 1.06 1.03 22.3 0 1 397.39 347.42
  L 393.49 347.72
  A 1.01 1.00 87.3 0 1 392.41 346.73
  L 392.28 338.75
  A 1.01 1.01 0.0 0 1 393.00 337.77
  Z"
/>
</svg>
