<svg width="18" height="18" viewBox="0 0 18 18" fill="none" xmlns="http://www.w3.org/2000/svg">
<path d="M8.48335 0.682617C7.8693 1.2548 7.37678 1.9448 7.03518 2.71147C6.69358 3.47813 6.5099 4.30574 6.49509 5.14493C6.48028 5.98412 6.63466 6.8177 6.949 7.59593C7.26334 8.37416 7.73121 9.08111 8.3247 9.6746C8.91819 10.2681 9.62514 10.736 10.4034 11.0503C11.1816 11.3646 12.0152 11.519 12.8544 11.5042C13.6936 11.4894 14.5212 11.3057 15.2878 10.9641C16.0545 10.6225 16.7445 10.13 17.3167 9.51595C17.1862 11.6327 16.2532 13.6201 14.708 15.0727C13.1628 16.5253 11.1217 17.3339 9.00085 17.3334C4.39752 17.3334 0.666687 13.6026 0.666687 9.00012C0.666687 4.57095 4.12169 0.949284 8.48335 0.682617Z" fill="white"/>
</svg>
