<?xml version="1.0" encoding="UTF-8"?>
<!DOCTYPE svg PUBLIC "-//W3C//DTD SVG 1.1//EN" "http://www.w3.org/Graphics/SVG/1.1/DTD/svg11.dtd">
<!-- Creator: CorelDRAW -->
<svg xmlns="http://www.w3.org/2000/svg" xml:space="preserve" width="2700mm" height="800mm" version="1.1" style="shape-rendering:geometricPrecision; text-rendering:geometricPrecision; image-rendering:optimizeQuality; fill-rule:evenodd; clip-rule:evenodd"
viewBox="0 0 270000 80000"
 xmlns:xlink="http://www.w3.org/1999/xlink"
 xmlns:xodm="http://www.corel.com/coreldraw/odm/2003">
 <defs>
  <style type="text/css">
   <![CDATA[
    .fil0 {fill:#012424}
    .fil1 {fill:#1FC8F2}
    .fil2 {fill:#83E509}
    .fil3 {fill:#83E509;fill-rule:nonzero}
   ]]>
  </style>
 </defs>
 <g id="Слой_x0020_1">
  <metadata id="CorelCorpID_0Corel-Layer"/>
  <g id="_1755254358352">
   <path class="fil0" d="M-1 36.11l243058.67 0c14817.73,0 26941.33,12123.6 26941.33,26941.33l0 52996.45 -243058.67 0c-14817.73,0 -26941.33,-12123.6 -26941.33,-26941.33l0 -52996.45z"/>
   <g>
    <polygon class="fil1" points="25456.1,41269.55 40931.06,56236.98 49123.25,56250.31 19269.47,26298.05 19265.41,56288.66 25453.34,56288.5 "/>
    <polygon class="fil2" points="46286.34,37706.88 30811.38,22739.44 22619.2,22726.11 52472.98,52678.38 52477.04,22687.76 46289.11,22687.92 "/>
   </g>
   <path class="fil1" d="M93682.88 39719.74c0,-3389.22 662.6,-6339.45 1987.48,-8850.7 1324.88,-2511.25 3219.81,-4460.06 5684.78,-5846.59 2464.97,-1386.53 5376.7,-2079.87 8735.17,-2079.87 3389.38,0 6316.64,693.34 8781.61,2079.87 2464.81,1386.53 4367.66,3335.34 5707.92,5846.59 1340.25,2511.25 2010.45,5461.48 2010.45,8850.7 0,3358.63 -670.2,6301.1 -2010.45,8827.72 -1340.26,2526.62 -3243.11,4490.96 -5707.92,5892.86 -2464.97,1401.9 -5392.23,2102.85 -8781.61,2102.85 -3358.47,0 -6262.43,-700.95 -8712.03,-2102.85 -2449.6,-1401.9 -4344.53,-3366.24 -5684.78,-5892.86 -1340.41,-2526.62 -2010.62,-5469.09 -2010.62,-8827.72zm8920.12 0c0,3050.55 616.32,5430.74 1848.81,7140.72 1232.49,1710.14 3112.04,2565.29 5638.5,2565.29 2526.62,0 4421.71,-855.15 5684.94,-2565.29 1263.23,-1709.98 1894.93,-4090.17 1894.93,-7140.72 0,-3050.39 -631.7,-5422.82 -1894.93,-7117.58 -1263.23,-1694.61 -3158.32,-2541.84 -5684.94,-2541.84 -2526.46,0 -4406.01,839.62 -5638.5,2518.86 -1232.49,1679.23 -1848.81,4059.42 -1848.81,7140.56z"/>
   <polygon class="fil1" points="62596.87,56034.77 62504.31,23450.98 85844.54,23450.98 85890.82,29967.77 70592.58,29921.65 70684.97,36207.22 84735.19,36253.5 84781.47,42770.29 70592.58,42724.01 70684.97,49471.87 85844.54,49564.26 85890.82,56034.77 "/>
   <polygon class="fil3" points="221360.86,56543.17 221360.86,22942.58 227842.63,22942.58 243478.9,42345.73 243475.26,22942.58 251625.33,22942.58 251625.33,56543.17 245143.4,56543.17 229613.63,37163.8 229606.18,56543.17 "/>
   <path class="fil3" d="M177129.06 56543.17l15727.88 -33600.59 7149.12 0 15823.11 33600.59 -8817.1 0 -2985.89 -6814.89 -15131.84 -0.47 -2948.17 6815.36 -8817.11 0zm19254.81 -24545.13l-4637.23 11057.99 9560.84 -0.8 -4685.41 -11057.19 -238.2 0z"/>
   <polygon class="fil3" points="135947.65,56543.17 135947.65,22942.58 143573.32,22942.58 153787.88,45803.88 163971.87,22942.58 171645.23,22942.58 171645.23,56543.17 163685.81,56543.17 163685.81,40380.75 156203.25,56543.17 151246.52,56543.17 143873.95,40697.71 143859.21,56543.17 "/>
  </g>
 </g>
</svg>
