<svg width="988" height="270" viewBox="0 0 988 270" fill="none" xmlns="http://www.w3.org/2000/svg">
<rect y="1" width="987" height="268" fill="#D9D9D9"/>
<line y1="-0.5" x2="1022.74" y2="-0.5" transform="matrix(0.965057 -0.262042 -0.262042 -0.965057 0 269)" stroke="black" stroke-opacity="0.1"/>
<line x1="0.131021" y1="0.517472" x2="987.131" y2="268.517" stroke="black" stroke-opacity="0.1"/>
<g filter="url(#filter0_d_101_26)">
<path d="M264.66 176V101.2H274.67C281.343 110.733 287.467 120.34 293.04 130.02C298.687 139.627 303.967 149.673 308.88 160.16L307.78 131.56V101.2H317.13V176H307.12C301.987 165.293 296.67 154.88 291.17 144.76C285.743 134.567 279.803 124.63 273.35 114.95L274.01 145.42V176H264.66ZM391.537 130.35V146.74C391.537 156.053 389.191 163.46 384.497 168.96C379.877 174.387 373.204 177.1 364.477 177.1C355.751 177.1 349.041 174.387 344.347 168.96C339.727 163.46 337.417 156.053 337.417 146.74V130.35C337.417 121.11 339.727 113.777 344.347 108.35C349.041 102.85 355.751 100.1 364.477 100.1C373.204 100.1 379.877 102.85 384.497 108.35C389.191 113.777 391.537 121.11 391.537 130.35ZM381.637 130.35C381.637 123.53 380.171 118.287 377.237 114.62C374.377 110.88 370.124 109.01 364.477 109.01C358.904 109.01 354.651 110.88 351.717 114.62C348.784 118.287 347.317 123.53 347.317 130.35V146.74C347.317 153.633 348.784 158.95 351.717 162.69C354.651 166.43 358.904 168.3 364.477 168.3C370.124 168.3 374.377 166.43 377.237 162.69C380.171 158.95 381.637 153.633 381.637 146.74V130.35ZM445.353 176H435.783V101.2H445.353V176ZM479.982 101.2L502.752 156.64L525.632 101.2H536.522V176H527.172V143.99L528.382 115.17L506.932 167.2H497.912L476.902 114.95L478.112 143.99V176H468.762V101.2H479.982ZM599.563 176L593.953 158.62H565.573L559.963 176H550.613L575.473 101.2H584.493L609.463 176H599.563ZM572.503 137.06L568.323 149.93H591.093L586.913 137.06L579.763 113.96L572.503 137.06ZM668.601 170.83C666.474 172.223 663.431 173.617 659.471 175.01C655.584 176.403 650.891 177.1 645.391 177.1C639.451 177.1 634.427 175.853 630.321 173.36C626.287 170.793 623.207 167.237 621.081 162.69C619.027 158.07 618.001 152.753 618.001 146.74V130.35C618.001 120.963 620.347 113.593 625.041 108.24C629.807 102.813 636.701 100.1 645.721 100.1C649.021 100.1 652.467 100.467 656.061 101.2C659.727 101.933 663.357 103.143 666.951 104.83L663.871 113.08C657.271 110.367 651.257 109.01 645.831 109.01C639.817 109.01 635.307 110.843 632.301 114.51C629.367 118.103 627.901 123.383 627.901 130.35V146.74C627.901 153.34 629.404 158.583 632.411 162.47C635.417 166.357 639.964 168.3 646.051 168.3C648.397 168.3 650.781 168.043 653.201 167.53C655.694 167.017 657.894 166.32 659.801 165.44V145.31H645.831V136.84H668.601V170.83ZM729.487 167.09V176H687.687V101.2H728.387V110.22H697.257V133.65H725.087V142.67H697.257V167.09H729.487Z" fill="#8A8A8A"/>
</g>
<defs>
<filter id="filter0_d_101_26" x="262.66" y="100.1" width="468.827" height="81" filterUnits="userSpaceOnUse" color-interpolation-filters="sRGB">
<feFlood flood-opacity="0" result="BackgroundImageFix"/>
<feColorMatrix in="SourceAlpha" type="matrix" values="0 0 0 0 0 0 0 0 0 0 0 0 0 0 0 0 0 0 127 0" result="hardAlpha"/>
<feOffset dy="2"/>
<feGaussianBlur stdDeviation="1"/>
<feComposite in2="hardAlpha" operator="out"/>
<feColorMatrix type="matrix" values="0 0 0 0 0 0 0 0 0 0 0 0 0 0 0 0 0 0 0.25 0"/>
<feBlend mode="normal" in2="BackgroundImageFix" result="effect1_dropShadow_101_26"/>
<feBlend mode="normal" in="SourceGraphic" in2="effect1_dropShadow_101_26" result="shape"/>
</filter>
</defs>
</svg>
