<svg width="94" height="37" viewBox="0 0 94 37" fill="none" xmlns="http://www.w3.org/2000/svg">
<path fill-rule="evenodd" clip-rule="evenodd" d="M93.8274 35.3505C93.8274 35.7 93.6833 35.9878 93.3951 36.214C93.1069 36.4401 92.7089 36.5498 92.2079 36.5498C91.9266 36.5498 91.6658 36.5155 91.4256 36.4538C91.1923 36.3853 90.9933 36.3099 90.8286 36.2277V35.5012H90.8629C91.0688 35.6589 91.2884 35.7754 91.5423 35.8645C91.7893 35.9535 92.0295 36.0015 92.2628 36.0015C92.551 36.0015 92.7706 35.9535 92.9285 35.8645C93.0863 35.7754 93.1687 35.6246 93.1687 35.4327C93.1687 35.282 93.1275 35.1655 93.0383 35.0901C92.9491 35.0147 92.7844 34.9461 92.5373 34.8913C92.4481 34.8708 92.3246 34.8433 92.1805 34.8159C92.0364 34.7885 91.8991 34.7611 91.7756 34.7268C91.4394 34.6377 91.1992 34.5076 91.0551 34.3362C90.9178 34.1649 90.8423 33.9524 90.8423 33.6989C90.8423 33.5412 90.8767 33.3905 90.9384 33.2534C91.0002 33.1164 91.1031 32.9862 91.2335 32.8765C91.3639 32.7669 91.5286 32.6846 91.7207 32.6229C91.9197 32.5613 92.1393 32.527 92.3863 32.527C92.6128 32.527 92.8461 32.5544 93.0794 32.6092C93.3196 32.6641 93.5118 32.7326 93.6627 32.8148V33.507H93.6284C93.4637 33.3836 93.2578 33.2808 93.0245 33.2055C92.7912 33.1232 92.5579 33.0753 92.3315 33.0753C92.0981 33.0753 91.8991 33.1232 91.7344 33.2123C91.5698 33.3014 91.4874 33.4385 91.4874 33.6166C91.4874 33.7743 91.5354 33.8908 91.6384 33.973C91.7344 34.0552 91.8854 34.1169 92.105 34.1717C92.2216 34.1991 92.3589 34.2266 92.503 34.254C92.6471 34.2814 92.7775 34.3088 92.8736 34.3294C93.1755 34.3979 93.4088 34.5144 93.5667 34.6857C93.7519 34.8433 93.8274 35.0695 93.8274 35.3505ZM81.9626 36.4538H81.3176V34.2677C81.3176 34.0895 81.3038 33.925 81.2832 33.7743C81.2627 33.6166 81.2215 33.5001 81.1666 33.4111C81.1117 33.3151 81.0293 33.2466 80.9195 33.1986C80.8098 33.1506 80.6725 33.1301 80.5009 33.1301C80.3225 33.1301 80.1372 33.1712 79.9451 33.2603C79.753 33.3494 79.5677 33.459 79.3961 33.5961V36.4607H78.7511V32.6298H79.3961V33.0547C79.5951 32.8902 79.8079 32.76 80.0206 32.6641C80.2402 32.575 80.4598 32.527 80.6862 32.527C81.098 32.527 81.4205 32.6504 81.6332 32.9039C81.8528 33.1506 81.9626 33.5138 81.9626 33.9798V36.4538ZM69.1988 34.5349C69.1988 34.0415 69.1028 33.6715 68.9106 33.4316C68.7116 33.1918 68.444 33.0684 68.094 33.0684C67.744 33.0684 67.4696 33.1849 67.2774 33.4316C67.0853 33.6715 66.9892 34.0415 66.9892 34.5349C66.9892 35.0147 67.0853 35.3847 67.2843 35.6314C67.4764 35.8782 67.7509 36.0084 68.1009 36.0084C68.444 36.0084 68.7185 35.885 68.9106 35.6383C69.0959 35.3916 69.1988 35.0215 69.1988 34.5349ZM69.8645 34.5349C69.8645 35.1586 69.6998 35.652 69.3841 36.0152C69.0616 36.3784 68.6293 36.5566 68.094 36.5566C67.5519 36.5566 67.1196 36.3784 66.8039 36.0152C66.4814 35.652 66.3235 35.1586 66.3235 34.5349C66.3235 33.9113 66.4814 33.4179 66.8039 33.0547C67.1264 32.6915 67.5519 32.5133 68.094 32.5133C68.6293 32.5133 69.0685 32.6983 69.3841 33.0547C69.7066 33.4179 69.8645 33.9113 69.8645 34.5349ZM57.4301 36.4538H56.785V32.6229H57.4301V36.4538ZM57.4713 31.9788H56.7439V31.3071H57.4713V31.9788ZM48.118 36.4195C47.9945 36.4538 47.8641 36.4812 47.72 36.5018C47.5759 36.5224 47.4524 36.5292 47.3357 36.5292C46.9446 36.5292 46.6427 36.4196 46.4437 36.214C46.2447 36.0015 46.1417 35.6657 46.1417 35.1997V33.1575H45.7025V32.6161H46.1417V31.5127H46.7868V32.6161H48.1249V33.1575H46.7868V34.905C46.7868 35.1038 46.7936 35.2614 46.8005 35.3779C46.8142 35.4944 46.8417 35.5972 46.8965 35.6931C46.9514 35.7891 47.0132 35.8507 47.1024 35.8919C47.1916 35.933 47.3289 35.9604 47.5073 35.9604C47.6171 35.9604 47.72 35.9467 47.8367 35.9124C47.9534 35.8782 48.0357 35.8576 48.0837 35.8371H48.118V36.4195ZM36.9669 36.4538H36.3219V36.0289C36.1023 36.2003 35.8964 36.3305 35.6974 36.4264C35.4984 36.5155 35.2788 36.5635 35.0386 36.5635C34.6337 36.5635 34.3181 36.4401 34.0985 36.1934C33.872 35.9467 33.7622 35.5835 33.7622 35.1106V32.6161H34.4073V34.8022C34.4073 35.001 34.4142 35.1655 34.4347 35.3025C34.4553 35.4396 34.4965 35.5561 34.5514 35.6589C34.6131 35.7617 34.6955 35.8302 34.7916 35.8782C34.8876 35.9261 35.0317 35.9467 35.217 35.9467C35.3817 35.9467 35.567 35.9056 35.766 35.8165C35.965 35.7274 36.1503 35.6177 36.3219 35.4807V32.6161H36.9669V36.4538ZM24.6217 36.4538H23.9767V31.1084H24.6217V36.4538ZM14.4176 34.5349C14.4176 34.0415 14.3215 33.6715 14.1225 33.4316C13.9304 33.1918 13.6559 33.0684 13.3127 33.0684C12.9628 33.0684 12.6952 33.1849 12.4962 33.4316C12.304 33.6715 12.2079 34.0415 12.2079 34.5349C12.2079 35.0147 12.304 35.3847 12.503 35.6314C12.6951 35.8782 12.9696 36.0084 13.3196 36.0084C13.6627 36.0084 13.9303 35.885 14.1294 35.6383C14.3215 35.3916 14.4176 35.0215 14.4176 34.5349ZM15.0901 34.5349C15.0901 35.1586 14.9254 35.652 14.6097 36.0152C14.2941 36.3784 13.8617 36.5566 13.3196 36.5566C12.7775 36.5566 12.3452 36.3784 12.0295 36.0152C11.707 35.652 11.5492 35.1586 11.5492 34.5349C11.5492 33.9113 11.7138 33.4179 12.0295 33.0547C12.3452 32.6915 12.7775 32.5133 13.3196 32.5133C13.8617 32.5133 14.2872 32.6983 14.6097 33.0547C14.9254 33.4179 15.0901 33.9113 15.0901 34.5349ZM3.00566 35.3505C3.00566 35.7 2.86157 35.9878 2.56649 36.214C2.27828 36.4401 1.88026 36.5498 1.37932 36.5498C1.09797 36.5498 0.83719 36.5155 0.597012 36.4538C0.363695 36.3853 0.164694 36.3099 0 36.2277V35.5012H0.0343238C0.233329 35.6589 0.466638 35.7754 0.713679 35.8645C0.96072 35.9535 1.20089 36.0015 1.43421 36.0015C1.71556 36.0015 1.94201 35.9535 2.09984 35.8645C2.25768 35.7754 2.34003 35.6246 2.34003 35.4327C2.34003 35.282 2.29885 35.1655 2.20964 35.0901C2.12043 35.0147 1.95575 34.9461 1.70871 34.8913C1.6195 34.8708 1.49597 34.8433 1.35186 34.8159C1.20776 34.7885 1.07051 34.7611 0.946993 34.7268C0.610743 34.6377 0.370558 34.5076 0.233314 34.3362C0.0892066 34.1649 0.0205859 33.9524 0.0205859 33.6989C0.0205859 33.5412 0.0549071 33.3905 0.116667 33.2534C0.18529 33.1164 0.281356 32.9862 0.411739 32.8765C0.542121 32.7669 0.706809 32.6846 0.898952 32.6229C1.09796 32.5613 1.32441 32.527 1.56459 32.527C1.79104 32.527 2.02437 32.5544 2.25768 32.6092C2.491 32.6641 2.69001 32.7326 2.84098 32.8148V33.507H2.80665C2.64196 33.3836 2.44297 33.2808 2.20279 33.2055C1.96948 33.1232 1.73616 33.0753 1.5097 33.0753C1.26952 33.0753 1.07738 33.1232 0.91269 33.2123C0.747996 33.3014 0.665638 33.4385 0.665638 33.6166C0.665638 33.7743 0.720537 33.8908 0.816608 33.973C0.91268 34.0552 1.07051 34.1169 1.28324 34.1717C1.39989 34.1991 1.53715 34.2266 1.68126 34.254C1.82536 34.2814 1.94889 34.3088 2.05182 34.3294C2.35376 34.3979 2.58706 34.5144 2.7449 34.6857C2.92331 34.8433 3.00566 35.0695 3.00566 35.3505Z" fill="#E77925"/>
<path d="M8.05032 11.5156C7.26803 11.5156 6.56121 11.6595 5.91616 11.9474C5.27797 12.2352 4.61235 12.6532 3.91926 13.1946V11.8514H0.0146484V24.002H3.91926V15.3876C4.34472 15.1341 4.74272 14.949 5.10642 14.8394C5.47012 14.7229 5.82696 14.6612 6.18379 14.6612C6.68474 14.6612 7.07589 14.7229 7.35038 14.8462C7.62487 14.9696 7.83759 15.1615 7.9817 15.4356C8.10522 15.6618 8.19443 16.025 8.24247 16.5115C8.2905 16.9981 8.31109 17.4847 8.31109 17.9781V24.002H12.2363V16.0935C12.2363 14.5721 11.8657 13.4276 11.1246 12.6669C10.3904 11.8994 9.36101 11.5156 8.05032 11.5156Z" fill="#013D59"/>
<path d="M34.7921 11.4668C32.6992 11.4668 31.0591 12.0425 29.8856 13.1869C28.7122 14.3382 28.1289 15.9145 28.1289 17.9293C28.1289 19.9304 28.7122 21.5066 29.8788 22.6511C31.0453 23.8024 32.6854 24.378 34.7921 24.378C36.8988 24.378 38.5389 23.8024 39.7055 22.6511C40.8789 21.5066 41.4554 19.9235 41.4554 17.9293C41.4554 15.9282 40.8789 14.3588 39.7123 13.2006C38.5595 12.0493 36.9194 11.4668 34.7921 11.4668ZM37.2282 19.7659C37.1047 20.2045 36.9126 20.5746 36.6587 20.883C36.4391 21.1639 36.1646 21.3695 35.8421 21.486C35.5195 21.6025 35.1833 21.6642 34.8264 21.6642C34.4147 21.6642 34.051 21.6025 33.7285 21.4655C33.4059 21.3353 33.1315 21.1297 32.905 20.8487C32.6648 20.554 32.4864 20.1634 32.3629 19.6768C32.2394 19.1902 32.1776 18.6146 32.1776 17.9498C32.1776 17.2028 32.2462 16.5929 32.3904 16.0995C32.5276 15.6129 32.7197 15.2223 32.9599 14.9413C33.2275 14.6398 33.502 14.4342 33.7971 14.3314C34.0922 14.2286 34.4216 14.1806 34.799 14.1806C35.1764 14.1806 35.5195 14.2423 35.8489 14.3657C36.1715 14.489 36.4528 14.6946 36.6861 14.9893C36.9194 15.284 37.0978 15.6677 37.2282 16.1475C37.3586 16.634 37.4272 17.2303 37.4272 17.943C37.4135 18.7242 37.3517 19.3273 37.2282 19.7659Z" fill="#013D59"/>
<path d="M50.604 11.2542C49.7737 11.2542 49.0394 11.405 48.4081 11.7065C47.7699 12.0081 47.1523 12.3987 46.5484 12.8853V6.83398H42.582V23.9462H46.3837L46.5484 23.3294C47.015 23.6104 47.516 23.8228 48.0307 23.9667C48.5522 24.1175 49.1561 24.186 49.8491 24.186C51.4549 24.186 52.793 23.5761 53.8704 22.3494C54.9478 21.1227 55.4899 19.5396 55.4899 17.6002C55.4899 15.6197 55.0644 14.0709 54.2204 12.9401C53.3763 11.8162 52.1686 11.2542 50.604 11.2542ZM50.6314 20.4442C50.1168 21.061 49.3345 21.3694 48.2846 21.3694C47.9277 21.3694 47.6189 21.3557 47.3581 21.3146C47.1042 21.2803 46.8298 21.2049 46.5484 21.109V14.9069C46.9052 14.6945 47.2827 14.53 47.6807 14.4135C48.0718 14.3039 48.463 14.249 48.8335 14.249C49.7942 14.249 50.4667 14.5437 50.8373 15.1399C51.2147 15.7362 51.4 16.5791 51.4 17.6824C51.4 18.9091 51.1392 19.8343 50.6314 20.4442Z" fill="#013D59"/>
<path d="M94.0003 17.1212C94.0003 15.2161 93.4994 13.7564 92.4838 12.7353C91.4682 11.721 89.9585 11.2139 87.9478 11.2139C85.7656 11.2139 84.0501 11.8101 82.7943 12.9957C81.5453 14.1881 80.9209 15.8054 80.9209 17.8408C80.9209 19.8967 81.5797 21.4867 82.9041 22.6037C84.2285 23.7139 86.1293 24.2759 88.6066 24.2759C89.5673 24.2759 90.4457 24.1936 91.2348 24.0292C92.024 23.8715 92.8681 23.6111 93.767 23.2479V20.0681H93.3278C92.8749 20.4176 92.2505 20.7328 91.4682 21.0344C90.679 21.3359 89.8761 21.4867 89.0389 21.4867C87.7145 21.4867 86.7195 21.2262 86.0401 20.7191C85.3608 20.2051 84.9902 19.465 84.9284 18.4987H94.0003V17.1212ZM84.9216 16.1824C84.9833 15.3052 85.251 14.6747 85.7451 14.2772C86.2391 13.8797 86.8636 13.6878 87.6322 13.6878C88.4556 13.6878 89.0595 13.8934 89.4438 14.3183C89.8349 14.7364 90.0408 15.3531 90.0614 16.1824H84.9216Z" fill="#013D59"/>
<path d="M25.6054 20.1908C25.1525 20.5266 24.5417 20.8418 23.7732 21.1434C22.9977 21.4381 22.2017 21.5888 21.3782 21.5888C20.0744 21.5888 19.0931 21.3353 18.4275 20.8281C17.755 20.321 17.3981 19.5946 17.3364 18.642H26.2642V17.2782C26.2642 15.4005 25.7701 13.9682 24.775 12.9608C23.7732 11.9671 22.2909 11.46 20.3077 11.46C18.1598 11.46 16.4717 12.0493 15.2434 13.2212C14.0151 14.3931 13.3975 15.983 13.3975 17.991C13.3975 20.0195 14.0494 21.582 15.3463 22.6785C16.6502 23.775 18.5236 24.3232 20.9665 24.3232C21.9135 24.3232 22.7713 24.241 23.5536 24.0834C24.3359 23.9257 25.1593 23.6722 26.0514 23.3158L28.4738 22.2604C27.8013 21.3832 27.4033 20.3005 27.2729 19.0258L25.6054 20.1908ZM18.1393 14.489C18.6265 14.0984 19.2441 13.9065 19.9921 13.9065C20.8018 13.9065 21.3988 14.1121 21.7763 14.5233C22.1605 14.9345 22.3664 15.5444 22.3801 16.3599H17.3227C17.3844 15.5033 17.6521 14.8797 18.1393 14.489Z" fill="#013D59"/>
<path d="M80.8722 14.2841C81.181 13.5919 81.6134 12.982 82.1623 12.4543C82.5123 12.1254 82.8966 11.8375 83.3152 11.6045H75.753V8.0752H71.7935V11.6045H69.3643H65.391H65.2881L62.4677 19.5884L59.5101 11.6045H55.3516L60.162 23.8647L58.2063 28.4769H62.4952L68.2732 14.2841H71.8004V20.0544C71.8004 21.5621 72.1778 22.6312 72.9258 23.2548C73.6806 23.8716 74.8266 24.1868 76.3637 24.1868C77.0568 24.1868 77.6401 24.1594 78.1136 24.0977C78.594 24.0292 79.04 23.947 79.4723 23.8373V21.1235H79.143C79.0126 21.1989 78.7792 21.2811 78.443 21.3702C78.1067 21.4593 77.8391 21.5004 77.6333 21.5004C77.1392 21.5004 76.7549 21.425 76.4941 21.2743C76.2334 21.1235 76.0481 20.9179 75.952 20.6643C75.8422 20.4108 75.7805 20.1229 75.7736 19.8008C75.7667 19.4788 75.7599 19.095 75.7599 18.6632V14.2841H80.8722Z" fill="#013D59"/>
<path fill-rule="evenodd" clip-rule="evenodd" d="M33.9807 5.8272C33.9876 5.84776 33.9876 5.86832 33.9944 5.88888C33.9944 5.87517 34.0013 5.86832 34.0013 5.85461C34.0081 5.83405 34.0081 5.8272 34.0219 5.80665C34.0493 5.77923 34.0699 5.78608 34.0973 5.79294L34.2071 5.86147L34.166 5.81349L34.1042 5.79294L33.9327 5.69014C33.9189 5.66958 33.8983 5.64217 33.8777 5.62161C33.8572 5.60105 33.8297 5.57363 33.7954 5.55307C33.7611 5.53251 33.7131 5.50511 33.6719 5.48455C33.6856 5.49826 33.6993 5.51196 33.7199 5.53252C33.7337 5.54622 33.7542 5.56679 33.7886 5.5942C33.8229 5.62161 33.8778 5.66273 33.9327 5.69699C33.9532 5.73811 33.967 5.77923 33.9807 5.8272ZM34.0768 7.17041C33.6513 6.90313 33.219 6.69755 32.7798 6.49196C32.3063 6.15615 31.9289 5.97797 31.373 5.64902C31.0231 5.41601 31.8534 5.48454 32.1416 5.58734C32.2857 5.6079 32.2239 5.99168 32.3543 6.01909C32.5671 6.19042 32.8416 6.23153 33.1229 6.34804C33.267 6.37545 33.0406 6.60161 33.1023 6.62217C33.4249 6.83461 33.9395 6.74552 34.063 6.98538L34.3101 7.4788C34.2552 7.37601 34.1866 7.26635 34.0768 7.17041ZM35.7306 7.99279C35.7443 8.12299 35.6688 8.14355 35.559 8.0339L35.607 7.83516C35.8747 8.01334 36.1149 8.21893 36.0805 8.59585C36.0805 8.59585 36.2178 8.66439 36.2795 8.69865C36.2933 8.80145 36.2041 8.85627 36.1423 8.91795C35.9296 8.65753 35.7992 8.36971 35.7306 7.99279ZM26.4665 1.67423C26.542 1.67423 26.6244 1.69478 26.693 1.74275C26.7136 1.75646 26.7342 1.77702 26.7548 1.79758C26.7822 1.81814 26.8097 1.84555 26.8371 1.88667C26.8646 1.92779 26.8989 1.97576 26.9263 2.03058C26.8577 2.03058 26.7959 2.01688 26.7273 1.98946C26.6587 1.96205 26.5969 1.92093 26.5352 1.87296C26.4734 1.82499 26.4185 1.76332 26.3705 1.69479C26.4116 1.67423 26.4391 1.67423 26.4665 1.67423ZM30.7966 4.80609C30.8035 4.78553 30.8103 4.75812 30.8241 4.71015C30.8378 4.66903 30.8652 4.60736 30.8858 4.54568C30.8995 4.55938 30.9133 4.57308 30.9476 4.6142C30.975 4.65532 31.0299 4.717 31.0574 4.75812C31.0917 4.79924 31.1123 4.8198 31.126 4.83351C31.1054 4.8198 31.0917 4.79924 31.0574 4.75812C31.0231 4.717 30.975 4.65532 30.9476 4.6142C30.9133 4.57994 30.8995 4.55938 30.8858 4.54568C30.8584 4.6005 30.8378 4.66217 30.8241 4.71015C30.8103 4.75126 30.8035 4.77868 30.7966 4.80609C30.7897 4.82665 30.7897 4.85406 30.7897 4.86776C30.7897 4.8472 30.7897 4.82665 30.7966 4.80609ZM5.84551 7.38286C5.39947 7.81461 4.49365 7.96536 3.93094 7.70495C3.80742 7.65012 3.6839 7.53362 3.58096 7.45139C3.03885 6.97852 3.18981 6.16985 3.51234 5.51196C5.39259 2.34583 11.8225 0.392691 14.7733 0.12542C18.7328 -0.224088 22.8707 0.118572 26.5901 1.63996C26.6518 1.66052 26.7067 1.68107 26.7753 1.70848C26.844 1.7359 26.9263 1.77017 27.0773 1.83185C27.2283 1.90038 27.4616 1.99632 27.688 2.10597L28.2301 2.36639L28.2644 2.41436L28.2507 2.3801L28.3742 2.44177C28.3811 2.48289 28.3948 2.51715 28.436 2.55827C28.4497 2.57198 28.4566 2.57883 28.4703 2.59254C28.484 2.59939 28.4978 2.61309 28.5183 2.61995C28.5389 2.63365 28.5595 2.64051 28.6076 2.65422C28.6556 2.66792 28.7242 2.68163 28.7997 2.69533L28.9644 2.73645C29.3144 2.93519 29.6643 3.12708 30.0143 3.32582C30.028 3.33952 30.0418 3.36009 30.0555 3.37379C30.0692 3.39435 30.0761 3.40806 30.0898 3.43547C30.1035 3.45603 30.1104 3.48344 30.1241 3.51085C30.1447 3.54512 30.1722 3.55197 30.2065 3.55197C30.2133 3.55197 30.2202 3.55197 30.2408 3.54512C30.2614 3.53827 30.2957 3.52457 30.33 3.51771C30.6525 3.71645 30.9682 3.91519 31.2289 4.07966C31.4897 4.24414 31.6887 4.38119 31.874 4.50455C32.0593 4.62791 32.224 4.74441 32.3818 4.86091C32.4024 4.88833 32.4161 4.92259 32.4435 4.97742C32.471 5.03224 32.5122 5.11448 32.5396 5.18301C32.5671 5.24469 32.5808 5.28581 32.5945 5.32007C32.6014 5.35434 32.6151 5.38176 32.622 5.40232C32.6288 5.42287 32.6288 5.44342 32.6288 5.45713C32.6288 5.47084 32.6357 5.48455 32.6357 5.49826L32.4641 5.40232L32.4504 5.42972C32.2377 5.34063 32.0249 5.25154 31.8259 5.18301C31.6269 5.11448 31.4348 5.05281 31.2632 5.00483C31.0917 4.95686 30.9339 4.9226 30.7829 4.88833L30.5633 4.84721L30.2957 4.66903C30.2476 4.6142 30.1927 4.55938 30.1447 4.51826C30.0967 4.47029 30.0555 4.42917 30.0212 4.39491C29.98 4.35379 29.9457 4.31952 29.9045 4.28526C29.8908 4.2784 29.8839 4.26469 29.8771 4.25784C29.8633 4.25099 29.8496 4.23728 29.8359 4.23043C29.8222 4.22358 29.8016 4.21673 29.781 4.20987C29.7604 4.20302 29.733 4.19616 29.6918 4.19616C29.6506 4.18931 29.5889 4.19617 29.4928 4.20302C29.3967 4.20988 29.2595 4.22358 29.1703 4.23043C29.0811 4.23728 29.033 4.23043 28.9987 4.22358C28.9575 4.21673 28.9232 4.20988 28.8958 4.20302C28.8889 4.20302 28.8889 4.20302 28.8889 4.20302C28.8752 4.19617 28.8752 4.18931 28.8752 4.1756C28.8752 4.16875 28.8752 4.1619 28.8752 4.1482C28.8821 4.12764 28.8889 4.09337 28.8889 4.07281C28.8958 4.05225 28.8958 4.03169 28.8958 4.02484C28.8958 4.01113 28.8958 4.00428 28.8958 3.99743C28.8958 3.98372 28.8958 3.97687 28.8889 3.96316C28.882 3.9426 28.8615 3.93574 28.8477 3.93574C28.6762 3.92889 28.5115 3.91519 28.3948 3.90148C28.2782 3.88778 28.2027 3.88092 28.1478 3.86722C28.0929 3.85351 28.0517 3.8398 28.0105 3.81924C28.0037 3.81924 27.9899 3.81924 27.9831 3.81924C27.9625 3.81924 27.9419 3.80554 27.9282 3.77812C27.9213 3.77127 27.9145 3.75756 27.9007 3.74386C27.887 3.7233 27.8733 3.69589 27.8596 3.66162C27.8458 3.62736 27.8253 3.57938 27.8047 3.55197C27.791 3.52456 27.7841 3.51086 27.7772 3.504C27.7704 3.49715 27.7635 3.4903 27.7566 3.48345C27.7361 3.46289 27.7155 3.45603 27.6949 3.45603C27.6606 3.45603 27.6263 3.44917 27.5851 3.45603C27.5439 3.45603 27.489 3.46289 27.4272 3.46289C27.3037 3.47659 27.1665 3.49715 27.0841 3.52456C27.0361 3.53827 27.0018 3.54512 26.9812 3.55883C26.9538 3.56568 26.94 3.57939 26.9263 3.57939C26.9126 3.58624 26.9057 3.59309 26.892 3.59995C26.8783 3.6068 26.8714 3.6205 26.8645 3.62735C26.8577 3.64106 26.8577 3.65477 26.8645 3.66847C26.8714 3.67532 26.8783 3.68219 26.8851 3.68904C26.892 3.69589 26.8989 3.69589 26.8989 3.70274C26.9057 3.70274 26.9194 3.70959 26.9332 3.71645C26.9469 3.71645 26.9537 3.7233 26.9743 3.73016C27.2694 3.80554 27.5645 3.88777 27.7704 3.94945C27.9831 4.00428 28.0997 4.03855 28.2164 4.07281C28.3331 4.10708 28.4429 4.14134 28.5527 4.1756C28.3811 4.15505 28.2096 4.12078 28.038 4.08651C27.8664 4.05225 27.688 4.01114 27.5027 3.95631C27.3175 3.90149 27.1116 3.84665 26.9126 3.77812C26.6724 3.65477 26.4322 3.53826 26.2538 3.45603C26.0754 3.37379 25.9656 3.33267 25.8695 3.29841C25.7735 3.26414 24.6137 2.9352 24.5314 2.91464C21.2993 2.27045 19.5014 2.26359 16.4408 2.36639C12.6529 2.48289 9.60602 4.3675 5.84551 7.38286ZM34.5022 6.33433C34.4953 6.24524 34.4748 6.17671 34.4473 6.12188L34.7081 6.39601C34.6669 6.39601 34.6257 6.40287 34.5914 6.39601C34.5503 6.38916 34.5228 6.37544 34.5022 6.33433Z" fill="#E77925"/>
</svg>
